<?xml version="1.0" encoding="iso-8859-1"?>
<!-- Generator: Adobe Illustrator 19.0.0, SVG Export Plug-In . SVG Version: 6.00 Build 0)  -->
<svg version="1.1" id="Layer_1" xmlns="http://www.w3.org/2000/svg" xmlns:xlink="http://www.w3.org/1999/xlink" x="0px" y="0px"
	 viewBox="0 0 512 512" style="enable-background:new 0 0 512 512;" xml:space="preserve">
<circle style="fill:#3E474C;" cx="256" cy="251.893" r="251.893"/>
<g>
	<path style="fill:#92BCBC;" d="M346.099,409.326c-5.906-5.715-12.349-10.876-19.245-15.411c0.002-0.002,0.004-0.005,0.007-0.009
		c-0.087-0.057-0.174-0.111-0.261-0.166c-0.002-0.001-0.004-0.003-0.007-0.004c-0.059-0.038-0.119-0.076-0.179-0.114
		c-0.776-0.507-1.557-1.009-2.346-1.498c-0.528-0.33-1.063-0.648-1.597-0.97c-0.325-0.196-0.646-0.398-0.973-0.591l-65.499-0.326
		l-65.499,0.326c-0.326,0.193-0.647,0.395-0.973,0.591c-0.533,0.322-1.069,0.641-1.597,0.97c-0.789,0.491-1.568,0.992-2.346,1.498
		c-0.059,0.038-0.119,0.076-0.179,0.114c-0.002,0.001-0.004,0.003-0.007,0.004c-0.087,0.057-0.174,0.111-0.261,0.166
		c0.002,0.002,0.004,0.005,0.007,0.009c-6.894,4.535-13.338,9.697-19.245,15.411c-16.957,16.406-29.509,37.328-35.714,60.82
		c9.707,5.607,19.823,10.581,30.289,14.875c3.726-19.326,13.098-36.652,26.343-50.181l0.296,59.399l0,0
		c21.898,6.217,45.007,9.541,68.885,9.539c23.879,0.002,46.987-3.322,68.885-9.539l0,0l0.296-59.399
		c13.244,13.53,22.616,30.856,26.343,50.181c10.466-4.295,20.583-9.267,30.288-14.875
		C375.608,446.653,363.056,425.731,346.099,409.326z"/>
	<path style="fill:#92BCBC;" d="M256.001,488.446c-18.145,0-36.126-2.049-53.613-6.1l-0.381-76.509L256,405.568l53.993,0.269
		l-0.381,76.509c-17.487,4.051-35.464,6.1-53.595,6.1H256.001z"/>
	<path style="fill:#92BCBC;" d="M425.507,201.764c-8.033,0.041-15.601,2.012-22.285,5.455
		c-15.035-55.748-56.454-106.569-108.577-124.085c-12.62-4.241-25.865-6.538-39.518-6.47
		c-70.042,0.349-128.803,62.595-146.787,132.024c-6.718-3.376-14.304-5.273-22.339-5.233c-27.218,0.136-49.173,22.31-49.037,49.529
		c0.136,27.219,22.31,49.173,49.529,49.037c8.213-0.041,15.94-2.099,22.733-5.687c11.006,36.4,35.171,67.057,66.936,86.474
		c23.465,14.345,51.077,22.556,80.601,22.41c69.491-0.346,127.942-46.873,146.445-110.348c6.827,3.52,14.575,5.501,22.788,5.461
		c27.218-0.136,49.173-22.31,49.037-49.529C474.899,223.584,452.724,201.628,425.507,201.764z"/>
</g>
<path style="fill:#516F7F;" d="M392.898,251.893c0-37.345-15.36-78.032-41.089-108.839C324.9,110.835,290.875,93.091,256,93.091
	s-68.9,17.744-95.809,49.964c-25.729,30.807-41.089,71.494-41.089,108.839c0,58.94,37.443,109.292,89.79,128.537
	c6.457,2.374,10.761,8.505,10.773,15.384l0.115,63.883c0.036,19.821,16.017,36.07,35.839,36.104c0.128,0,0.255,0,0.383,0h0.014
	c0.122,0,0.243,0,0.365,0c19.821-0.033,35.803-16.283,35.839-36.104l0.115-63.884c0.012-6.88,4.316-13.011,10.773-15.384
	C355.455,361.185,392.898,310.834,392.898,251.893z"/>
<g>
	<path style="fill:#E0EDDC;" d="M256,512c-4.537,0-8.214-3.677-8.214-8.214V372.364c0-4.537,3.677-8.214,8.214-8.214
		c4.537,0,8.214,3.677,8.214,8.214v131.422C264.214,508.323,260.537,512,256,512z"/>
	<path style="fill:#E0EDDC;" d="M260.107,386.784h-8.214c-4.537,0-8.214-3.677-8.214-8.214c0-4.537,3.677-8.214,8.214-8.214h8.214
		c4.537,0,8.214,3.677,8.214,8.214C268.321,383.107,264.644,386.784,260.107,386.784z"/>
	<path style="fill:#E0EDDC;" d="M260.107,427.671h-8.214c-4.537,0-8.214-3.677-8.214-8.214c0-4.537,3.677-8.214,8.214-8.214h8.214
		c4.537,0,8.214,3.677,8.214,8.214C268.321,423.994,264.644,427.671,260.107,427.671z"/>
	<path style="fill:#E0EDDC;" d="M260.107,463.812h-8.214c-4.537,0-8.214-3.677-8.214-8.214s3.677-8.214,8.214-8.214h8.214
		c4.537,0,8.214,3.677,8.214,8.214S264.644,463.812,260.107,463.812z"/>
	<path style="fill:#E0EDDC;" d="M260.107,499.953h-8.214c-4.537,0-8.214-3.677-8.214-8.214c0-4.537,3.677-8.214,8.214-8.214h8.214
		c4.537,0,8.214,3.677,8.214,8.214C268.321,496.276,264.644,499.953,260.107,499.953z"/>
	<path style="fill:#E0EDDC;" d="M148.671,470.999c-0.965,0-1.944-0.171-2.9-0.531c-4.244-1.602-6.385-6.342-4.783-10.586
		c6.425-17.018,16.759-32.741,29.878-45.463c4.946-4.797,10.344-9.224,16.047-13.156c3.735-2.576,8.849-1.636,11.425,2.098
		c2.576,3.733,1.636,8.849-2.098,11.425c-4.952,3.417-9.642,7.261-13.936,11.426c-11.397,11.053-20.369,24.702-25.946,39.474
		C155.115,468.973,151.989,470.999,148.671,470.999z"/>
	<circle style="fill:#E0EDDC;" cx="148.672" cy="462.782" r="10.952"/>
	<path style="fill:#E0EDDC;" d="M363.329,470.999c-3.318,0-6.444-2.026-7.686-5.315c-5.578-14.771-14.548-28.421-25.945-39.474
		c-4.295-4.166-8.985-8.009-13.937-11.426c-3.735-2.576-4.674-7.69-2.098-11.425c2.576-3.735,7.689-4.674,11.425-2.098
		c5.7,3.932,11.1,8.357,16.048,13.156c13.119,12.724,23.451,28.445,29.877,45.463c1.602,4.244-0.539,8.984-4.783,10.586
		C365.275,470.828,364.294,470.999,363.329,470.999z"/>
	<circle style="fill:#E0EDDC;" cx="363.328" cy="462.782" r="10.952"/>
	<path style="fill:#E0EDDC;" d="M288.845,428.767c-3.996,0-7.501-2.922-8.112-6.995c-0.674-4.487,2.417-8.669,6.903-9.343
		c1.391-0.208,2.67-0.423,3.846-0.636c-8.228-1.498-20.213-2.74-35.481-2.74c-15.268,0-27.254,1.242-35.481,2.74
		c1.175,0.214,2.455,0.428,3.846,0.636c4.486,0.674,7.577,4.857,6.903,9.343c-0.675,4.487-4.86,7.579-9.343,6.903
		c-13.454-2.022-28.898-5.767-28.898-16.884c0-9.989,12.101-13.691,22.642-15.799c10.857-2.171,25.179-3.367,40.331-3.367
		s29.475,1.196,40.331,3.367c10.541,2.108,22.642,5.81,22.642,15.799c0,11.117-15.443,14.863-28.898,16.884
		C289.662,428.737,289.251,428.767,288.845,428.767z"/>
	<path style="fill:#E0EDDC;" d="M288.845,464.908c-3.996,0-7.501-2.922-8.112-6.995c-0.674-4.487,2.417-8.669,6.903-9.343
		c1.391-0.208,2.67-0.423,3.846-0.636c-8.228-1.498-20.213-2.74-35.481-2.74c-15.268,0-27.254,1.242-35.481,2.74
		c1.175,0.214,2.455,0.428,3.846,0.636c4.486,0.674,7.577,4.857,6.903,9.343c-0.675,4.487-4.86,7.579-9.343,6.903
		c-13.454-2.022-28.898-5.767-28.898-16.884c0-9.989,12.101-13.691,22.642-15.799c10.857-2.171,25.179-3.367,40.331-3.367
		s29.475,1.196,40.331,3.367c10.541,2.108,22.642,5.81,22.642,15.799c0,11.117-15.443,14.863-28.898,16.884
		C289.662,464.878,289.251,464.908,288.845,464.908z"/>
	<path style="fill:#E0EDDC;" d="M288.845,501.049c-3.996,0-7.501-2.922-8.112-6.995c-0.674-4.487,2.417-8.669,6.903-9.343
		c1.391-0.208,2.67-0.423,3.846-0.636c-8.228-1.498-20.213-2.74-35.481-2.74c-15.268,0-27.254,1.242-35.481,2.74
		c1.175,0.214,2.455,0.428,3.846,0.636c4.486,0.674,7.577,4.857,6.903,9.343c-0.675,4.487-4.86,7.579-9.343,6.903
		c-13.454-2.022-28.898-5.767-28.898-16.884c0-9.989,12.101-13.691,22.642-15.799c10.857-2.171,25.179-3.367,40.331-3.367
		s29.475,1.196,40.331,3.367c10.541,2.108,22.642,5.81,22.642,15.799c0,11.117-15.443,14.863-28.898,16.884
		C289.662,501.02,289.251,501.049,288.845,501.049z"/>
	<path style="fill:#E0EDDC;" d="M339.2,153.585c-23.733-28.416-53.28-44.066-83.2-44.066s-59.468,15.65-83.2,44.066
		c-20.023,23.976-33.124,54.435-36.44,83.834c-0.908,8.044-0.449,16.182,1.314,24.084l7.274,32.6
		c1.066,4.777,5.307,8.173,10.203,8.168h0.093c25.404,0,45.998,20.594,45.998,45.998c0,0.035,0,0.071,0,0.106
		c-0.015,6.795,3.963,12.952,10.274,15.47c13.769,5.493,28.779,8.519,44.485,8.519s30.717-3.026,44.485-8.519
		c6.31-2.518,10.29-8.675,10.274-15.47c0-0.035,0-0.071,0-0.106c0-25.404,20.594-45.998,45.998-45.998h0.085
		c4.894,0.004,9.135-3.391,10.202-8.167l7.279-32.594c1.765-7.905,2.225-16.049,1.318-24.097
		C372.323,208.017,359.223,177.559,339.2,153.585z"/>
</g>
<g>
	<path style="fill:#3E474C;" d="M201.241,302.022c-27.175,0-49.283-22.109-49.283-49.283s22.109-49.283,49.283-49.283
		s49.283,22.109,49.283,49.283S228.416,302.022,201.241,302.022z"/>
	<path style="fill:#3E474C;" d="M310.759,302.022c-27.175,0-49.283-22.109-49.283-49.283s22.109-49.283,49.283-49.283
		s49.283,22.109,49.283,49.283S337.934,302.022,310.759,302.022z"/>
	<circle style="fill:#3E474C;" cx="256" cy="293.488" r="8.214"/>
	<path style="fill:#3E474C;" d="M256,341.925c-11.984,0-23.313-4.247-32.271-12.031h-4.966c-4.537,0-8.214-3.677-8.214-8.214
		c0-4.537,3.677-8.214,8.214-8.214h11.598l2.405,2.406c6.205,6.206,14.455,9.624,23.233,9.624s17.027-3.417,23.23-9.621l2.405-2.406
		h12.696c4.537,0,8.214,3.677,8.214,8.214c0,4.537-3.677,8.214-8.214,8.214h-6.064C279.312,337.678,267.982,341.925,256,341.925z"/>
	<path style="fill:#3E474C;" d="M256,346.627c-4.537,0-8.214-3.677-8.214-8.214v-22.999c0-4.537,3.677-8.214,8.214-8.214
		c4.537,0,8.214,3.677,8.214,8.214v22.999C264.214,342.95,260.537,346.627,256,346.627z"/>
	<path style="fill:#3E474C;" d="M225.335,335.675c-4.537,0-8.214-3.677-8.214-8.214v-12.047c0-4.537,3.677-8.214,8.214-8.214
		s8.214,3.677,8.214,8.214v12.047C233.549,331.998,229.872,335.675,225.335,335.675z"/>
	<path style="fill:#3E474C;" d="M287.76,335.675c-4.537,0-8.214-3.677-8.214-8.214v-12.047c0-4.537,3.677-8.214,8.214-8.214
		c4.537,0,8.214,3.677,8.214,8.214v12.047C295.974,331.998,292.298,335.675,287.76,335.675z"/>
</g>
<g>
</g>
<g>
</g>
<g>
</g>
<g>
</g>
<g>
</g>
<g>
</g>
<g>
</g>
<g>
</g>
<g>
</g>
<g>
</g>
<g>
</g>
<g>
</g>
<g>
</g>
<g>
</g>
<g>
</g>
</svg>
